<?xml version="1.0" encoding="UTF-8" standalone="no"?>
<!-- Created with Inkscape (http://www.inkscape.org/) -->

<svg
   xmlns:dc="http://purl.org/dc/elements/1.1/"
   xmlns:cc="http://creativecommons.org/ns#"
   xmlns:rdf="http://www.w3.org/1999/02/22-rdf-syntax-ns#"
   xmlns:svg="http://www.w3.org/2000/svg"
   xmlns="http://www.w3.org/2000/svg"
   xmlns:sodipodi="http://sodipodi.sourceforge.net/DTD/sodipodi-0.dtd"
   xmlns:inkscape="http://www.inkscape.org/namespaces/inkscape"
   version="1.1"
   id="svg3896"
   xml:space="preserve"
   width="331.66013"
   height="120.00085"
   viewBox="0 0 331.66013 120.00086"
   sodipodi:docname="jojoba.ai.svg"
   inkscape:version="0.92.3 (2405546, 2018-03-11)"><metadata
     id="metadata3902"><rdf:RDF><cc:Work
         rdf:about=""><dc:format>image/svg+xml</dc:format><dc:type
           rdf:resource="http://purl.org/dc/dcmitype/StillImage" /><dc:title /></cc:Work></rdf:RDF></metadata><defs
     id="defs3900"><clipPath
       clipPathUnits="userSpaceOnUse"
       id="clipPath3912"><path
         d="M 0,133.493 H 293.985 V 0 H 0 Z"
         id="path3910"
         inkscape:connector-curvature="0" /></clipPath><linearGradient
       x1="0"
       y1="0"
       x2="1"
       y2="0"
       gradientUnits="userSpaceOnUse"
       gradientTransform="matrix(-42.096501,0.13757032,-0.13757032,-42.096501,106.14404,91.257351)"
       spreadMethod="pad"
       id="linearGradient3950"><stop
         style="stop-opacity:1;stop-color:#3f6ec1"
         offset="0"
         id="stop3946" /><stop
         style="stop-opacity:1;stop-color:#518df8"
         offset="1"
         id="stop3948" /></linearGradient><clipPath
       clipPathUnits="userSpaceOnUse"
       id="clipPath3960"><path
         d="M 0,133.493 H 293.985 V 0 H 0 Z"
         id="path3958"
         inkscape:connector-curvature="0" /></clipPath><linearGradient
       x1="0"
       y1="0"
       x2="1"
       y2="0"
       gradientUnits="userSpaceOnUse"
       gradientTransform="matrix(50.000378,0,0,-50.000378,60.000139,-46.24079)"
       spreadMethod="pad"
       id="linearGradient3968"><stop
         style="stop-opacity:1;stop-color:#3f6ec1"
         offset="0"
         id="stop3964" /><stop
         style="stop-opacity:1;stop-color:#518df8"
         offset="1"
         id="stop3966" /></linearGradient></defs><sodipodi:namedview
     pagecolor="#ffffff"
     bordercolor="#666666"
     borderopacity="1"
     objecttolerance="10"
     gridtolerance="10"
     guidetolerance="10"
     inkscape:pageopacity="0"
     inkscape:pageshadow="2"
     inkscape:window-width="1920"
     inkscape:window-height="1017"
     id="namedview3898"
     showgrid="false"
     inkscape:zoom="2.8284271"
     inkscape:cx="120.27658"
     inkscape:cy="55.86427"
     inkscape:window-x="-8"
     inkscape:window-y="-3"
     inkscape:window-maximized="1"
     inkscape:current-layer="g3904"
     fit-margin-top="10"
     fit-margin-left="10"
     fit-margin-right="10"
     fit-margin-bottom="10"
     inkscape:snap-global="false"><inkscape:grid
       type="xygrid"
       id="grid54"
       originx="-36.980745"
       originy="-24.395939" /></sodipodi:namedview><g
     id="g3904"
     inkscape:groupmode="layer"
     inkscape:label="text"
     transform="matrix(1.3333333,0,0,-1.3333333,-36.980743,144.39681)"
     style="display:inline"><text
   transform="scale(1.0132584,-0.98691506)"
   id="text4018"
   y="-49.197529"
   x="115.74684"
   style="font-style:normal;font-variant:normal;font-weight:normal;font-stretch:normal;font-size:29.60745049px;line-height:1.25;font-family:'Copperplate Gothic Bold';-inkscape-font-specification:'Copperplate Gothic Bold, ';font-variant-ligatures:normal;font-variant-caps:normal;font-variant-numeric:normal;font-feature-settings:normal;text-align:start;letter-spacing:0px;word-spacing:0px;writing-mode:lr-tb;text-anchor:start;fill:#083b66;fill-opacity:1;stroke:#083b66;stroke-width:0.74018627;stroke-opacity:1"
   xml:space="preserve"><tspan
     style="font-style:normal;font-variant:normal;font-weight:normal;font-stretch:normal;font-size:29.60745049px;font-family:'Copperplate Gothic Bold';-inkscape-font-specification:'Copperplate Gothic Bold, ';font-variant-ligatures:normal;font-variant-caps:normal;font-variant-numeric:normal;font-feature-settings:normal;text-align:start;writing-mode:lr-tb;text-anchor:start;fill:#083b66;fill-opacity:1;stroke:#083b66;stroke-width:0.74018627;stroke-opacity:1"
     y="-49.197529"
     x="115.74684"
     sodipodi:role="line"
     id="tspan3782">Jojoba</tspan></text>


<text
   transform="scale(1,-1)"
   id="text52"
   y="-109.4446"
   x="123.25145"
   style="font-style:normal;font-weight:normal;font-size:30px;line-height:1.25;font-family:sans-serif;letter-spacing:0px;word-spacing:0px;fill:#000000;fill-opacity:1;stroke:none;stroke-width:0.75"
   xml:space="preserve"><tspan
     style="stroke-width:0.75"
     y="-82.074692"
     x="123.25145"
     id="tspan50"
     sodipodi:role="line" /></text>


</g><g
     inkscape:groupmode="layer"
     id="layer2"
     inkscape:label="logo"
     style="display:inline"><path
       inkscape:connector-curvature="0"
       id="path3916"
       style="fill:#083b66;fill-opacity:1;fill-rule:nonzero;stroke:#000000;stroke-width:6.97494888;stroke-miterlimit:4;stroke-dasharray:none;stroke-opacity:1"
       d="m 106.51253,60.000842 c 0,25.687813 -20.824383,46.512538 -46.511783,46.512538 -25.688904,0 -46.513273,-20.824725 -46.513273,-46.512538 0,-25.687813 20.824369,-46.512516 46.513273,-46.512516 25.6874,0 46.511783,20.824703 46.511783,46.512516" /><path
       inkscape:connector-curvature="0"
       id="path3924"
       style="fill:none;fill-opacity:1;stroke:#ffa500;stroke-width:5.81491899;stroke-linecap:round;stroke-linejoin:round;stroke-miterlimit:10;stroke-dasharray:none;stroke-opacity:1"
       d="M 59.999721,22.924167 59.939061,100.76341 59.999721,85.874694 40.966339,66.840695"
       sodipodi:nodetypes="cccc" /><path
       inkscape:connector-curvature="0"
       id="path3928"
       style="fill:none;stroke:#ffa500;stroke-width:5.81491899;stroke-linecap:round;stroke-linejoin:round;stroke-miterlimit:10;stroke-dasharray:none;stroke-opacity:1"
       d="M 58.999721,53.72527 48.0815,37.983449" /><path
       inkscape:connector-curvature="0"
       id="path3932"
       style="fill:none;stroke:#ffa500;stroke-width:5.81491899;stroke-linecap:round;stroke-linejoin:round;stroke-miterlimit:10;stroke-dasharray:none;stroke-opacity:1"
       d="M 78.026592,52.399278 60.000179,67.897347" /></g><g
     inkscape:groupmode="layer"
     id="layer1"
     inkscape:label="powershell"
     style="display:inline"><path
   d="m 70.468558,72.857306 c -1.044463,0 -1.954284,0.711124 -2.203961,1.725521 v 0 L 60.273603,106.9808 c -0.352947,1.43139 0.730732,2.81312 2.203961,2.81312 v 0 h 37.596756 c 1.05884,0 1.97651,-0.73073 2.21311,-1.76082 v 0 l 7.4472,-32.397966 c 0.32811,-1.420941 -0.75296,-2.777828 -2.21181,-2.777828 v 0 z"
   style="fill:url(#linearGradient3950);stroke:none;stroke-width:1.30721307"
   id="path3952"
   inkscape:connector-curvature="0" /><path
   inkscape:connector-curvature="0"
   id="path3970"
   style="fill:none;stroke:url(#linearGradient3968);stroke-width:0.41307935;stroke-linecap:butt;stroke-linejoin:miter;stroke-miterlimit:10;stroke-dasharray:none;stroke-opacity:1"
   d="M 100.07524,109.79431 H 62.477177 c -1.473229,0 -2.556909,-1.38303 -2.203961,-2.81312 l 7.990993,-32.397972 c 0.250985,-1.014397 1.159498,-1.726829 2.203961,-1.726829 h 37.05557 c 1.45885,0 2.53861,1.356888 2.2118,2.779135 l -7.4485,32.397966 c -0.2366,1.03009 -1.15426,1.76082 -2.2118,1.76082 z" /><path
   inkscape:connector-curvature="0"
   id="path3974"
   style="fill:#3462a8;fill-opacity:1;fill-rule:nonzero;stroke:none;stroke-width:1.30721307"
   d="m 71.909368,106.03712 c -0.701973,0 -1.394796,-0.3255 -1.839249,-0.93727 -0.735961,-1.0144 -0.51112,-2.43403 0.504584,-3.16999 l 14.84602,-10.772747 -9.140034,-9.832857 c -0.853611,-0.91897 -0.801322,-2.355598 0.117649,-3.209208 0.917663,-0.852303 2.354291,-0.800014 3.207901,0.117649 L 90.491402,89.94402 c 0.441838,0.475825 0.658836,1.117667 0.596089,1.764737 -0.06275,0.647071 -0.400007,1.235317 -0.925506,1.617023 l -16.921874,12.27865 c -0.402622,0.29151 -0.869297,0.43269 -1.330743,0.43269" /><path
   inkscape:connector-curvature="0"
   id="path3978"
   style="fill:#ffffff;fill-opacity:1;fill-rule:nonzero;stroke:none;stroke-width:1.30721307"
   d="m 71.496681,105.58992 c -0.701973,0 -1.394796,-0.3255 -1.839249,-0.93727 -0.735961,-1.0144 -0.51112,-2.43403 0.504584,-3.16999 l 14.84602,-10.772747 -9.140034,-9.832857 c -0.853611,-0.91897 -0.801322,-2.355598 0.117649,-3.209208 0.917663,-0.852303 2.354291,-0.800014 3.207901,0.117649 L 90.078715,89.49682 c 0.441838,0.475825 0.658836,1.117667 0.596089,1.764737 -0.06275,0.647071 -0.400007,1.235317 -0.925506,1.617023 l -16.921874,12.27865 c -0.402622,0.29151 -0.869297,0.43269 -1.330743,0.43269" /><path
   inkscape:connector-curvature="0"
   id="path3982"
   style="fill:#3462a8;fill-opacity:1;fill-rule:nonzero;stroke:none;stroke-width:1.30721307"
   d="m 93.976956,105.12272 h -8.911272 c -1.082372,0 -1.960819,-0.87714 -1.960819,-1.96082 0,-1.08237 0.878447,-1.95951 1.960819,-1.95951 h 8.911272 c 1.082372,0 1.96082,0.87714 1.96082,1.95951 0,1.08368 -0.878448,1.96082 -1.96082,1.96082" /><path
   inkscape:connector-curvature="0"
   id="path3986"
   style="fill:#ffffff;fill-opacity:1;fill-rule:nonzero;stroke:none;stroke-width:1.30721307"
   d="m 93.632897,104.74442 h -8.911272 c -1.082372,0 -1.959512,-0.87714 -1.959512,-1.96082 0,-1.08237 0.87714,-1.95951 1.959512,-1.95951 h 8.911272 c 1.082372,0 1.96082,0.87714 1.96082,1.95951 0,1.08368 -0.878448,1.96082 -1.96082,1.96082" /><text
   xml:space="preserve"
   style="font-style:normal;font-weight:normal;font-size:39.21639252px;line-height:1.25;font-family:sans-serif;letter-spacing:0px;word-spacing:0px;fill:#000000;fill-opacity:1;stroke:none;stroke-width:0.9804098"
   x="134.52589"
   y="114.48682"
   id="text4014"><tspan
     sodipodi:role="line"
     id="tspan4012"
     x="134.52589"
     y="149.18413"
     style="stroke-width:0.9804098" /></text>


</g></svg>